<svg xmlns="http://www.w3.org/2000/svg" width="135" height="24" viewBox="0 0 135 24" fill="none">
<path d="M64.7103 12.0002L61.2195 7.18616L56.8254 1.14702C56.3894 0.550582 55.735 0.150962 55.0053 0.0354735C54.2756 -0.0800155 53.5298 0.0980148 52.9309 0.530666L52.8644 0.578665C52.2679 1.01467 51.8683 1.66903 51.7528 2.39875C51.6373 3.12848 51.8154 3.87425 52.248 4.47313L57.7079 11.985L52.2535 19.5121C51.8174 20.1116 51.6368 20.8594 51.7511 21.5919C51.8654 22.3243 52.2653 22.9815 52.8633 23.4196L52.9298 23.4687C53.5288 23.9011 54.2745 24.079 55.0041 23.9635C55.7338 23.848 56.3881 23.4486 56.8243 22.8524L64.7103 12.0002Z" fill="#646464"/>
<path d="M2.24177 0.312488C1.64775 0.314215 1.07855 0.550956 0.658507 0.970996C0.238467 1.39104 0.00172682 1.96024 0 2.55426V23.6902H5.97915V14.5093H14.4564C15.0505 14.5076 15.6197 14.2708 16.0397 13.8508C16.4597 13.4307 16.6965 12.8615 16.6982 12.2675V9.72902H5.97915V6.21855C5.97972 5.9212 6.09802 5.63618 6.30818 5.42583C6.51833 5.21547 6.80323 5.09689 7.10058 5.09603H17.2513C17.8457 5.09459 18.4153 4.85782 18.8356 4.43752C19.2559 4.01721 19.4927 3.44756 19.4941 2.85316V0.312488H2.24177Z" fill="#646464"/>
<path d="M29.1769 18.8827C28.8791 18.8821 28.5936 18.7639 28.3826 18.5539C28.1715 18.3439 28.052 18.059 28.05 17.7612V2.57171C28.0482 1.97451 27.8102 1.40226 27.3879 0.979965C26.9657 0.557674 26.3934 0.31967 25.7962 0.317943H22.0359V21.4375C22.0376 22.0347 22.2756 22.607 22.6979 23.0293C23.1202 23.4515 23.6925 23.6896 24.2897 23.6913H36.5916C37.1888 23.6896 37.7611 23.4515 38.1834 23.0293C38.6056 22.607 38.8437 22.0347 38.8454 21.4375V18.8827H29.1769Z" fill="#646464"/>
<path d="M47.4645 23.6902H41.4701V11.493C41.4715 10.8973 41.7087 10.3265 42.1298 9.90516C42.5509 9.48386 43.1216 9.2464 43.7173 9.24467H47.4645V23.6902Z" fill="#646464"/>
<path d="M45.2162 7.0618H41.4701V2.56626C41.4718 1.9705 41.7092 1.39963 42.1305 0.978367C42.5517 0.5571 43.1226 0.31967 43.7184 0.317943H45.2172C45.8128 0.319957 46.3834 0.557514 46.8044 0.978751C47.2255 1.39999 47.4627 1.97069 47.4645 2.56626V4.81349C47.4627 5.40925 47.2253 5.98011 46.804 6.40138C46.3828 6.82265 45.8119 7.06008 45.2162 7.0618Z" fill="#646464"/>
<path d="M85.7982 19.895H81.6725C81.1002 19.8933 80.5518 19.6651 80.1471 19.2605C79.7424 18.8558 79.5143 18.3074 79.5125 17.735V13.8078H85.7655C86.5587 13.8242 87.3142 14.1497 87.871 14.7149C88.4278 15.2802 88.7418 16.0405 88.7462 16.8339C88.7506 17.6272 88.4451 18.391 87.8946 18.9624C87.3441 19.5338 86.5923 19.8676 85.7993 19.8928L85.7982 19.895ZM79.5114 4.11423H85.1317C85.492 4.10526 85.8504 4.16822 86.1861 4.29942C86.5217 4.43062 86.8278 4.62744 87.0865 4.87835C87.3452 5.12926 87.5513 5.42924 87.6927 5.76073C87.8341 6.09223 87.9079 6.44859 87.91 6.80897C87.912 7.16935 87.8421 7.52652 87.7045 7.85958C87.5669 8.19265 87.3642 8.49493 87.1084 8.74874C86.8525 9.00255 86.5486 9.2028 86.2145 9.33778C85.8803 9.47276 85.5226 9.53975 85.1622 9.53484H81.4532C80.941 9.53572 80.4492 9.33382 80.0854 8.97325C79.7215 8.61267 79.5152 8.12275 79.5114 7.61052V4.11423ZM92.2061 12.1737C92.0774 12.0548 91.7119 11.7668 91.6127 11.6948C92.1716 11.0768 92.6006 10.3527 92.8742 9.56565C93.1478 8.77857 93.2604 7.94453 93.2053 7.11308C93.2053 2.8368 90.4465 0.317943 86.18 0.317943H76.9719C76.3771 0.318517 75.8068 0.554749 75.3858 0.974914C74.9648 1.39508 74.7275 1.96494 74.7257 2.55971V21.4495C74.7274 22.0435 74.9642 22.6127 75.3842 23.0328C75.8043 23.4528 76.3735 23.6896 76.9675 23.6913H87.2306C91.4926 23.6913 94.0748 21.2051 94.0748 16.9343C94.103 16.0551 93.9514 15.1794 93.6293 14.3608C93.3072 13.5422 92.8214 12.798 92.2017 12.1737" fill="#646464"/>
<path d="M115.066 0.310307H112.423C111.838 0.312033 111.277 0.545441 110.863 0.959548C110.448 1.37366 110.215 1.93481 110.213 2.52044V16.4172C110.213 18.4103 108.842 19.7368 106.476 19.7368H105.385C103.019 19.7368 101.649 18.4103 101.649 16.4172V0.310307H99.0056C98.42 0.312033 97.8588 0.545441 97.4447 0.959548C97.0306 1.37366 96.7972 1.93481 96.7955 2.52044V17.1438C96.7955 21.2597 99.6263 24 104.507 24H107.329C112.215 24 115.046 21.2597 115.046 17.1438L115.066 0.310307Z" fill="#646464"/>
<path d="M124.464 5.06548H132.018C132.612 5.06376 133.181 4.82701 133.601 4.40697C134.021 3.98693 134.258 3.41773 134.26 2.82371V0.284125H124.464C122.581 0.30281 120.783 1.06363 119.458 2.4012C118.134 3.73878 117.391 5.545 117.391 7.42725C117.399 9.26823 118.138 11.0307 119.445 12.3273C120.752 13.624 122.52 14.3488 124.361 14.3424H127.45C128.051 14.3424 128.627 14.581 129.052 15.0057C129.477 15.4304 129.715 16.0064 129.715 16.6071C129.715 17.2077 129.477 17.7837 129.052 18.2084C128.627 18.6331 128.051 18.8717 127.45 18.8717H117.668V21.4146C117.67 22.0086 117.907 22.5778 118.327 22.9979C118.747 23.4179 119.316 23.6546 119.91 23.6564H127.498C129.372 23.6252 131.158 22.859 132.472 21.523C133.786 20.187 134.523 18.3882 134.523 16.5143C134.515 14.6827 133.784 12.9283 132.489 11.6332C131.194 10.3382 129.439 9.60748 127.608 9.6003H124.47C123.87 9.6003 123.293 9.3617 122.869 8.93699C122.444 8.51228 122.205 7.93625 122.205 7.33562C122.205 6.73499 122.444 6.15896 122.869 5.73424C123.293 5.30954 123.87 5.07094 124.47 5.07094" fill="#646464"/>
<path d="M70.18 19.5274L66.1186 13.9377L62.6169 18.7517L65.5972 22.8535C66.0334 23.4497 66.6877 23.8491 67.4174 23.9646C68.147 24.0801 68.8927 23.9022 69.4917 23.4698L69.5582 23.4207C70.1544 22.9846 70.5538 22.3302 70.6693 21.6006C70.7848 20.8709 70.6069 20.1252 70.1746 19.5263" fill="#646464"/>
<path d="M69.5626 0.578665L69.496 0.529575C68.8971 0.0969239 68.1514 -0.0811063 67.4216 0.0343826C66.6919 0.149871 66.0376 0.549491 65.6016 1.14593L62.6234 5.24439L66.1208 10.0585L70.18 4.47313C70.6123 3.87402 70.7899 3.12824 70.6742 2.39859C70.5586 1.66894 70.1589 1.01469 69.5626 0.578665Z" fill="#646464"/>
</svg>