<svg width="600" height="600" viewBox="0 0 600 600" fill="none" xmlns="http://www.w3.org/2000/svg">
<g clip-path="url(#clip0_2_58579)">
<path d="M77.208 266.682C77.208 266.682 82.6752 301.737 84.9264 316.209C87.1777 330.681 94.5745 397.574 96.5041 414.619L100.471 405.078C100.471 405.078 97.326 375.062 96.6113 368.916C95.8966 362.77 90.751 322.891 88.4641 306.311C86.1771 289.73 81.6032 265.432 81.6032 265.432L77.208 266.682L77.208 266.682Z" fill="#79A3F3"/>
<path fill-rule="evenodd" clip-rule="evenodd" d="M42.4746 221.657C46.0122 249.315 60.9544 272.317 79.1348 270.862C95.2172 269.576 102.292 245.777 99.398 213.939C96.5036 182.1 78.8155 155.729 63.7003 157.659C46.0505 159.912 39.3285 197.061 42.4746 221.657ZM66.1657 189.533C65.451 185.388 66.0442 183.788 67.5951 183.53C69.3103 183.244 70.4537 184.53 71.0255 187.961C71.2486 189.299 71.5805 190.943 71.9449 192.747C72.5141 195.565 73.1625 198.775 73.5983 201.825C74.3129 206.828 78.1722 238.273 78.458 241.847C78.4898 242.244 78.5338 242.716 78.583 243.243C78.9767 247.464 79.6971 255.187 77.0287 255.568C74.3367 255.953 73.944 251.624 73.4792 246.499C73.4258 245.91 73.3714 245.31 73.3124 244.706C73.0219 241.728 72.5838 238.012 72.0919 233.84C71.6156 229.801 71.0888 225.333 70.5967 220.693C69.5961 211.259 66.8804 193.678 66.1657 189.533Z" fill="#79A3F3"/>
<path fill-rule="evenodd" clip-rule="evenodd" d="M13.4401 340.53C26.0278 365.41 47.8048 382.087 64.4509 374.633C79.1759 368.04 77.8807 343.246 64.5003 314.211C51.12 285.176 21.9032 261.932 8.3047 268.808C-7.57396 276.837 2.24582 318.404 13.4401 340.53ZM22.1467 299.513C19.7427 295.49 19.8686 293.564 21.6531 292.626L21.6531 292.626C23.6268 291.589 25.4904 292.44 27.456 295.778C28.223 297.081 29.2351 298.654 30.3459 300.382C32.0816 303.081 34.0583 306.155 35.7181 309.155C38.4402 314.073 54.783 345.262 56.4551 348.872C56.6407 349.273 56.8693 349.747 57.1245 350.277C59.1673 354.517 62.9056 362.275 59.8116 363.822C56.6902 365.383 54.6084 361.029 52.144 355.876C51.8606 355.283 51.5721 354.68 51.2764 354.074C49.8197 351.088 47.9104 347.395 45.7663 343.248C43.6905 339.233 41.3948 334.793 39.0768 330.157C34.3646 320.733 24.5507 303.535 22.1467 299.513Z" fill="#79A3F3"/>
<path fill-rule="evenodd" clip-rule="evenodd" d="M108.617 270.863C118.908 238.702 142.561 224.325 152.998 228.197C166.291 233.128 167.577 259.714 158.358 284.799C149.139 309.884 130.486 328.965 115.907 324.248C106.231 321.118 98.7088 301.826 108.617 270.863ZM142.296 252.31C143.686 248.933 145.854 246.196 147.858 246.947C149.976 247.741 148.453 252.111 147.46 254.098C147.103 254.813 146.126 257.204 144.856 260.314C142.601 265.837 139.419 273.629 137.132 278.33C135.039 282.632 132.182 289.494 129.903 294.968C128.288 298.847 126.963 302.029 126.406 303.11C126.14 303.624 125.889 304.147 125.643 304.658C124.369 307.304 123.251 309.625 121.241 308.721C119.332 307.862 119.808 306.086 120.553 303.304C120.584 303.191 120.614 303.077 120.645 302.961C121.44 299.981 127.001 286.474 131.173 277.139C132.747 273.615 134.52 269.694 136.192 265.997C138.948 259.901 141.43 254.412 142.296 252.31Z" fill="#79A3F3"/>
<path d="M114.835 320.818C114.835 320.818 97.2537 371.631 95.7529 377.42L97.0393 388.354C97.0393 388.354 116.55 330.037 119.766 322.533L114.835 320.818Z" fill="#79A3F3"/>
<path d="M61.4492 371.631C61.878 372.489 82.8893 411.295 89.1069 429.305L92.323 421.586C92.323 421.586 75.1709 384.495 66.8092 368.844L61.4492 371.631Z" fill="#79A3F3"/>
<path fill-rule="evenodd" clip-rule="evenodd" d="M384.658 285.227C372.181 279.549 357.116 276.622 345.636 274.391L345.635 274.391C341.897 273.665 338.539 273.013 335.774 272.363C332.12 271.505 328.699 268.933 326.234 267.003C323.768 265.074 323.661 264.109 325.483 263.466C325.483 263.466 339.803 258.825 347.031 255.211C353.891 251.781 355.142 250.673 353.141 244.813L353.093 244.673L353.004 244.409L352.912 244.138C350.989 238.47 348.884 232.265 336.203 218.656C328.028 209.882 326.881 195.746 325.723 181.458C325.192 174.914 324.659 168.339 323.446 162.233C319.587 142.794 303.722 139.077 295.574 139.006C278.839 138.859 265.665 144.151 259.877 167.628C255.04 187.243 244.118 197.216 234.47 204.934C224.822 212.653 213.244 221.979 209.707 233.557L209.602 233.892C208.075 238.761 207.654 240.102 216.46 245.134C225.465 250.28 245.297 258.856 259.126 263.037C259.126 263.037 257.274 265.719 251.837 269.683C251.274 270.093 250.935 270.587 250.793 271.078C250.64 271.096 250.481 271.116 250.315 271.136L250.309 271.137C249.907 271.187 249.465 271.243 248.978 271.291C244.69 271.72 222.964 275.293 215.817 276.651C190.041 281.549 154.713 297.234 118.694 364.127C82.6742 431.02 43.0226 507.994 85.0326 522.998L176.367 523.427C176.367 523.427 175.081 501.772 174.438 486.764C174.106 479.031 172.674 458.212 171.286 438.023L171.286 438.023C169.98 419.033 168.712 400.601 168.435 394.143C168.291 390.803 168.189 388.54 168.116 386.925L168.116 386.924C168.005 384.469 167.962 383.514 167.945 382.559C167.934 381.951 167.934 381.344 167.934 380.35C167.934 375.061 170.221 371.059 176.939 371.059H192.948H394.628C403.204 371.059 412.404 375.695 411.78 393.5C411.689 396.091 411.453 402.519 411.138 411.103L411.137 411.156L411.127 411.428L411.122 411.552L411.112 411.818L411.11 411.875L411.108 411.935L411.106 411.995C409.927 444.139 407.706 504.731 407.706 509.92C407.706 511.272 407.652 512.695 407.598 514.104C407.388 519.622 407.186 524.928 410.279 524.928C412.757 524.928 413.047 516.372 413.257 510.186L413.269 509.833L413.28 509.491C413.495 503.273 415.853 425.471 415.853 421.801C415.853 420.46 418.677 423.248 423.35 427.862L423.351 427.862C429.138 433.576 437.762 442.09 447.37 449.03C464.737 461.572 476.314 468.326 495.932 468.326C515.55 468.326 537.097 441.311 548.996 385.674C560.895 330.037 561.539 323.283 561.539 323.283C561.539 323.283 531.63 312.349 526.484 310.741C526.036 310.601 525.609 310.461 525.202 310.327C520.939 308.926 518.807 308.226 515.871 315.565C514.237 319.652 506.785 335.704 499.642 351.093L499.633 351.111L499.631 351.116L499.629 351.121C492.724 365.997 486.109 380.246 485.319 382.458C483.711 386.961 482.746 386.639 478.244 381.493C473.742 376.348 448.013 344.188 431.933 323.927C415.853 303.666 401.381 292.839 384.658 285.227ZM254.731 276.33C254.575 274.86 254.413 273.777 254.205 272.986C254.665 272.797 255.163 272.523 255.696 272.149L255.908 271.999C259.987 269.131 264.95 265.641 268.989 256.569C271.454 251.03 272.442 248.252 273.169 245.458C273.865 242.778 274.577 242.496 277.081 243.529C280.888 245.099 285.712 246.903 293.859 246.492C301.672 246.098 301.103 243.504 300.934 242.847C300.613 241.597 298.79 241.418 294.717 241.704C282.246 242.579 276.064 237.63 269.846 226.696C263.965 216.354 264.03 197.959 264.055 191.095C264.056 190.702 264.057 190.347 264.057 190.033C264.057 185.96 265.129 185.531 267.273 184.888C269.417 184.244 288.622 177.09 300.934 163.019C303.186 160.446 304.579 159.267 305.437 162.054C305.509 162.29 305.596 162.594 305.699 162.957L305.699 162.957C306.819 166.886 309.922 177.781 318.837 185.209C320.016 186.174 320.016 187.568 319.909 189.819C319.802 192.07 319.127 203.945 318.301 214.046C317.779 220.418 314.692 225.444 311.963 229.885C309.642 233.663 307.581 237.018 307.581 240.418C307.581 251.783 314.12 262.608 321.088 268.29L321.408 268.551C328.066 273.979 328.371 274.227 327.949 276.866C327.52 279.546 323.554 313.85 322.696 321.89C322.178 326.744 320.449 339.568 319.09 349.654C318.197 356.275 317.463 361.716 317.336 362.948C317.014 366.057 316.586 366.164 314.549 366.164H263.843C261.768 366.164 261.768 366.164 261.797 362.803C261.802 362.345 261.806 361.824 261.806 361.232C261.806 357.768 261.436 350.969 261.029 343.513C260.857 340.357 260.679 337.084 260.52 333.896C259.62 315.898 254.731 276.33 254.731 276.33ZM256.661 246.742C260.1 247.375 261.914 247.922 261.485 249.78C260.887 252.371 254.088 250.816 250.979 250.066C241.964 247.889 243.16 242.683 244.027 238.906C244.423 237.186 244.75 235.762 244.011 235.057C243.165 234.249 240.37 234.736 237.128 235.299C232.178 236.16 226.185 237.202 224.501 234.093C222.415 230.242 226.686 225.572 230.932 220.93L231.347 220.475L231.54 220.264C235.971 215.404 242.059 209.358 247.263 204.255C249.417 202.143 251.036 199.923 252.373 198.092L252.373 198.091L252.373 198.091C254.474 195.212 255.876 193.29 257.554 194.25C258.805 194.964 257.84 199.788 252.159 206.113C249.199 209.408 245.19 213.258 241.621 216.686L241.62 216.687L241.62 216.687L241.619 216.687L241.619 216.688L241.619 216.688C238.712 219.48 236.097 221.991 234.578 223.694C233.905 224.448 233.273 225.129 232.7 225.746L232.7 225.747C230.259 228.375 228.893 229.845 230.075 230.877C230.732 231.449 233.037 231.081 235.807 230.638C240.121 229.948 245.562 229.078 247.656 231.305C249.294 233.048 248.946 235.566 248.579 238.212C248.442 239.203 248.303 240.211 248.264 241.204C248.121 244.848 249.479 245.42 256.661 246.742ZM146.579 458.358C148.4 454.109 160.844 427.398 160.844 427.398C164.082 421.024 165.195 423.149 165.195 431.547C165.195 434.987 165.539 442.321 165.889 449.785C166.218 456.809 166.553 463.949 166.611 468.071C166.698 474.105 158.925 470.885 152.68 468.298L152.678 468.297L152.671 468.294L152.665 468.292L152.656 468.288L152.652 468.287L152.651 468.286C151.577 467.841 150.549 467.415 149.614 467.059C143.734 464.819 144.57 462.924 146.164 459.307L146.166 459.304C146.299 459.001 146.438 458.686 146.579 458.358ZM178.828 328.957C176.806 329.324 177.269 332.791 177.767 336.519L177.767 336.521C177.829 336.985 177.891 337.452 177.95 337.918C178.477 342.135 181.113 353.556 182.167 357.422C182.279 357.835 182.386 358.238 182.489 358.627C183.352 361.888 183.973 364.237 185.857 363.923C187.671 363.621 187.144 360.846 186.401 356.943C186.281 356.31 186.155 355.648 186.032 354.962C185.525 352.123 184.653 348.039 183.845 344.257L183.845 344.256C183.253 341.485 182.696 338.877 182.342 337.04L182.291 336.772C181.436 332.322 180.723 328.612 178.828 328.957ZM238.391 281.828C239.462 278.307 240.532 275.507 242.676 276.012C243.977 276.318 244.36 278.614 243.136 283.817C242.354 287.14 240.886 296.138 239.369 305.438L239.369 305.438C238.51 310.705 237.635 316.068 236.86 320.551C234.852 332.172 233.919 348.366 233.558 354.635C233.534 355.054 233.512 355.428 233.493 355.754C233.43 356.825 233.4 357.848 233.373 358.798C233.267 362.46 233.193 365.033 231.35 365.09C229.514 365.148 228.748 362.641 228.901 357.285C228.923 356.539 228.938 355.661 228.956 354.65V354.65C229.065 348.393 229.263 337.064 231.503 320.857C234.105 302.031 237.319 285.348 238.391 281.828ZM116.811 498.619C116.374 498.783 115.84 498.991 115.224 499.231C109.92 501.297 98.4928 505.75 89.6696 505.104C79.822 504.383 81.7434 495.977 85.3462 488.531C88.949 481.085 105.762 460.67 111.286 454.665C116.811 448.66 122.258 443.304 124.497 445.778C125.606 447.005 122.838 449.978 119.457 453.611L119.456 453.612C118.203 454.958 116.865 456.395 115.61 457.867C110.966 463.312 93.993 484.288 90.6303 490.212C87.2677 496.137 86.0473 499.847 91.6712 499.74C100.078 499.58 111.779 495.491 115.69 493.815C119.052 492.374 122.335 491.573 123.216 493.255C124.096 494.936 121.935 496.697 116.811 498.619ZM162.345 504.271C163.41 507.157 154.457 510.663 146.913 512.438L146.707 512.486C144.752 512.947 143.027 513.353 140.087 513.759C126.918 515.578 122.429 503.721 125.296 502.35C126.623 501.715 127.51 502.908 128.638 504.427C129.857 506.068 131.358 508.09 134.003 508.595C139.073 509.563 142.197 508.802 147.581 507.491C147.871 507.42 148.169 507.348 148.474 507.274C150.759 506.72 153.035 505.862 155.067 505.095C158.808 503.684 161.722 502.585 162.345 504.271ZM341.027 283.513C337.856 284.089 338.883 291.231 340.384 300.45C341.885 309.67 344.243 330.681 344.243 339.257C344.243 340.862 344.206 342.429 344.17 343.92V343.921V343.923V343.925C344.015 350.396 343.894 355.417 347.031 355.766C350.319 356.131 350.328 345.761 350.334 339.764V339.76C350.335 338.719 350.336 337.811 350.354 337.113C350.519 330.66 348.705 316.544 347.376 306.199V306.199C346.983 303.14 346.632 300.411 346.387 298.306C345.315 289.087 343.386 283.084 341.027 283.513ZM393.878 346.332C394.414 343.009 395.539 338.453 397.576 338.989C399.418 339.473 398.954 342.168 398.375 345.524C398.306 345.928 398.235 346.341 398.166 346.761L398.094 347.199C397.636 349.986 396.613 356.221 395.7 360.482C394.735 364.985 393.985 367.45 392.377 367.129C390.783 366.81 391.19 363.751 391.615 360.564L391.626 360.482C391.948 358.069 392.753 353.179 393.361 349.485L393.362 349.481L393.362 349.479C393.564 348.253 393.744 347.16 393.878 346.332ZM484.819 394.5C482.246 393.357 480.436 397.883 478.888 405.935C477.101 415.226 475.957 427.518 475.814 432.807L475.804 433.19C475.666 438.24 475.588 441.1 477.958 441.24C479.792 441.348 479.916 438.527 480.051 435.478C480.095 434.485 480.14 433.469 480.245 432.521C480.333 431.737 480.448 430.55 480.589 429.089L480.59 429.086L480.59 429.086C481.145 423.358 482.109 413.427 483.39 407.079C483.679 405.645 483.991 404.257 484.283 402.959L484.283 402.958C485.293 398.47 486.061 395.052 484.819 394.5ZM491.966 409.044C492.18 402.362 492.815 400.146 494.967 400.253C496.984 400.354 496.819 405.105 496.703 408.434C496.696 408.643 496.689 408.847 496.682 409.044C496.667 409.509 496.652 409.93 496.638 410.334C496.549 412.82 496.483 414.684 496.575 422.337C496.589 423.456 496.597 424.5 496.605 425.468C496.659 432.192 496.684 435.281 498.183 435.093C498.926 435.001 500.012 433.794 501.268 432.398C502.912 430.572 504.847 428.422 506.688 428.018C509.618 427.375 512.334 430.591 513.406 435.737C513.5 436.189 513.594 436.632 513.686 437.066C514.64 441.562 515.361 444.962 513.62 445.742C511.548 446.671 510.762 443.815 509.761 439.81C509.558 439 509.386 438.2 509.224 437.445C508.643 434.74 508.188 432.623 506.902 432.735C505.766 432.834 504.683 434.286 503.464 435.921C501.799 438.155 499.879 440.73 497.218 440.668C492.609 440.561 491.966 434.236 491.751 428.018C491.546 422.063 491.786 414.629 491.945 409.682L491.966 409.044Z" fill="#362E53"/>
<path d="M254.696 183.101C254.696 183.101 244.261 194.536 228.682 202.254C213.102 209.973 204.473 215.155 199.952 223.694C197.379 228.554 196.021 233.414 199.237 233.843C202.453 234.271 203.34 221.524 217.104 214.046C231.969 205.971 241.76 202.004 246.691 198.073L254.696 183.101Z" fill="#362E53"/>
<path d="M31.4336 525.142C31.4336 528.174 35.936 527.929 39.3664 527.929H522.841C531.845 527.929 532.917 526.857 533.132 524.285C533.346 521.712 527.557 521.926 522.841 521.926H39.7952C36.1504 521.926 31.4336 522.355 31.4336 525.142Z" fill="#362E53"/>
<path d="M298.256 213.403C292.64 215.884 289.465 217.477 289.894 220.05C290.323 222.622 296.012 225.889 302.758 222.301C307.796 219.621 309.726 214.475 308.011 212.117C306.296 209.758 302.865 211.366 298.256 213.403Z" fill="#362E53"/>
<path d="M286.063 201.765C284.541 203.203 286.211 205.647 287.781 206.8C289.74 208.239 293.632 210.076 297.632 207.2C300.689 205.002 300.657 202.5 299.77 201.805C298.292 200.646 297.387 202.007 295.374 203.564C293.256 205.202 291.458 204.682 289.42 202.764C287.697 201.142 286.782 201.086 286.063 201.765Z" fill="#362E53"/>
<path d="M331.452 177.812C327.307 177.598 326.02 179.956 326.02 188.818C326.02 197.68 326.099 204.685 326.02 206.971C325.913 210.08 327.638 212.442 330.63 212.117C335.561 211.581 339.742 203.112 339.599 194.107C339.456 185.102 335.772 178.036 331.452 177.812Z" fill="#79A3F3"/>
<path d="M323.161 221.836C313.483 233.329 304.008 235.987 297.433 236.701C290.858 237.416 285.357 236.419 285.283 233.986C285.212 231.627 288.499 232.199 292.93 231.985C297.361 231.77 310.154 229.626 317.086 221.55C324.018 213.475 326.02 208.472 326.663 204.47L331.022 207.185C331.022 207.185 328.878 215.047 323.161 221.836Z" fill="#79A3F3"/>
<path d="M291.657 305.988C306.161 305.988 317.494 300.596 320.367 298.788C323.008 297.127 325.595 294.286 323.835 292.732C322.293 291.37 319.286 294.219 316.161 295.876C311.443 298.378 303.029 301.273 291.834 301.273C280.639 301.273 272.225 298.378 267.507 295.876C264.381 294.219 261.375 291.37 259.833 292.732C258.073 294.286 260.66 297.127 263.3 298.788C266.173 300.596 277.153 305.988 291.657 305.988Z" fill="#362E53"/>
<path d="M324.262 437.393L298.018 411.149C294.832 407.963 289.666 407.963 286.48 411.149L260.236 437.393C257.05 440.579 257.05 445.744 260.236 448.931L286.48 475.174C289.666 478.36 294.832 478.36 298.018 475.174L324.262 448.931C327.448 445.744 327.448 440.579 324.262 437.393Z" fill="#79A3F3"/>
<path d="M185.74 507.569C185.279 512.608 191.406 511.77 195.514 511.77H394.38C397.354 511.77 398.487 510.001 398.487 508.011C398.487 506.021 396.504 504.915 391.83 504.915H194.947C190.415 504.915 186.024 504.473 185.74 507.569Z" fill="#362E53"/>
<path d="M537.848 276.151C535.412 274.823 533.989 280.011 531.416 285.728C528.843 291.445 525.985 300.593 524.698 303.595C523.412 306.596 521.158 311.589 523.483 312.171C525.484 312.671 527.7 307.168 528.843 304.167C529.987 301.165 534.418 289.587 535.561 286.729C536.705 283.87 539.42 277.009 537.848 276.151Z" fill="#362E53"/>
<path d="M566.793 283.084C564.839 282.986 564.649 286.085 563.577 292.303C562.505 298.521 560.682 308.705 559.932 313.1C559.182 317.495 557.895 323.391 559.932 324.249C561.969 325.106 563.684 316.959 564.863 310.42C566.042 303.881 566.9 296.698 567.543 292.839C568.186 288.98 568.937 283.191 566.793 283.084Z" fill="#362E53"/>
<path d="M530.916 223.337C528.044 219.729 525.198 216.69 522.554 218.191C518.734 220.359 522.268 236.63 525.699 247.993C529.115 259.311 530.13 263.43 531.559 268.147C532.988 272.863 534.561 277.151 536.562 276.723C538.563 276.294 537.419 270.434 533.989 258.284C530.559 246.135 529.701 242.99 527.986 237.273C526.27 231.556 524.484 225.409 525.484 224.552C526.485 223.694 533.196 234.184 536.133 239.131C538.849 243.705 539.42 244.848 540.707 247.278C541.993 249.708 543.423 252.138 545.138 251.28C546.853 250.423 546.424 247.564 542.994 241.847C539.563 236.129 533.703 226.839 530.916 223.337V223.337Z" fill="#362E53"/>
<path d="M548.462 172.989C544.817 172.881 542.423 177.527 541.422 185.531C540.422 193.535 537.992 210.545 537.277 218.263C536.562 225.981 535.848 228.983 538.278 229.269C540.708 229.555 541.136 222.265 541.851 217.262C542.566 212.26 544.853 189.533 545.567 185.96C546.282 182.387 546.436 179.049 548.033 179.099C549.748 179.153 550.284 182.958 550.713 191.106C551.142 199.253 551.285 202.397 551.428 206.971C551.571 211.545 552.142 214.69 554.572 214.404C557.002 214.118 556.001 205.828 556.001 201.254C556.001 196.68 555.29 187.23 554.858 183.959C553.983 177.33 551.974 173.092 548.462 172.989Z" fill="#362E53"/>
<path d="M580.658 221.193C582.873 222.122 584.588 218.12 586.732 213.618C588.876 209.115 591.91 200.844 593.879 196.251C594.844 194 596.313 193.44 595.666 197.323C594.951 201.611 591.556 218.549 586.732 234.307C581.908 250.066 576.227 262.823 572.582 269.255C568.937 275.687 565.078 281.047 566.793 282.226C568.508 283.405 572.475 279.224 575.905 272.792C579.335 266.36 587.268 248.779 589.841 240.739C592.414 232.699 598.131 210.58 599.525 200.611C600.232 195.549 600.668 188.104 596.916 187.889C593.164 187.675 590.806 192.713 588.769 196.787C586.732 200.861 582.603 210.38 581.479 213.082C580.157 216.262 578.928 220.468 580.658 221.193V221.193Z" fill="#362E53"/>
<path d="M248.369 186.746C252.8 187.389 250.54 167.632 264.735 148.368C270.738 140.221 277.599 132.717 295.394 132.717C313.189 132.717 327.911 145.366 330.198 178.813L333.986 182.029C333.986 182.029 335.916 128 295.823 128C278.885 128 268.379 134.646 260.875 145.795C253.371 156.944 249.633 166.281 247.583 178.813C246.939 182.744 246.518 186.477 248.369 186.746Z" fill="#79A3F3"/>
<path d="M570.866 201.986C574.591 192.126 576.328 188.261 578.763 182.172C581.908 174.311 584.7 171.655 587.625 172.453C590.77 173.31 590.627 179.742 589.626 185.889C588.626 192.035 587.196 198.896 585.338 206.614C583.48 214.332 581.908 218.62 580.193 218.192C578.477 217.763 579.478 213.618 580.193 210.187C580.907 206.757 583.051 198.753 583.766 194.75C584.481 190.748 587.196 179.528 585.91 179.099C584.624 178.67 582.908 183.459 580.621 189.605C578.334 195.751 574.618 206.328 573.189 209.901C571.76 213.475 569.794 217.691 567.722 217.405C565.438 217.091 565.042 214.618 565.185 210.33C565.327 206.042 566.614 192.749 566.9 186.46C567.186 180.171 568.078 174.102 566.471 174.025C564.97 173.954 563.183 183.602 561.897 189.605C560.611 195.608 558.467 210.616 555.894 209.616C553.321 208.615 554.822 200.897 557.895 186.103C560.72 172.505 563.462 165.428 567.757 166.021C570.866 166.45 571.831 172.024 571.724 178.349C571.617 184.674 570.978 194.654 570.545 198.502C570.33 200.405 570.25 201.048 570.169 201.665C570.089 202.281 570.411 203.192 570.866 201.986Z" fill="#362E53"/>
<path d="M544.816 215.011C543.799 217.868 551.248 219.192 555.643 220.264C560.038 221.336 572.045 224.124 576.869 224.981C581.693 225.839 584.945 226.196 585.231 224.338C585.448 222.924 582.443 221.872 577.941 220.8C573.438 219.728 559.502 216.941 556.394 216.191C553.285 215.44 545.566 212.903 544.816 215.011Z" fill="#362E53"/>
</g>
<defs>
<clipPath id="clip0_2_58579">
<rect width="600" height="399.934" fill="white" transform="translate(0 128)"/>
</clipPath>
</defs>
</svg>
